{
	"asset":{
		"generator":"Khronos glTF Blender I/O v3.6.28",
		"version":"2.0"
	},
	"scene":0,
	"scenes":[
		{
			"name":"Scene",
			"nodes":[
				0
			]
		}
	],
	"nodes":[
		{
			"mesh":0,
			"name":"Mesh_0",
			"rotation":[
				0,
				0.9715203046798706,
				0,
				0.23695626854896545
			],
			"scale":[
				3,
				3,
				3
			],
			"translation":[
				-2,
				3,
				0
			]
		}
	],
	"materials":[
		{
			"doubleSided":true,
			"name":"brick",
			"pbrMetallicRoughness":{
				"metallicFactor":0,
				"roughnessFactor":0.5
			}
		}
	],
	"meshes":[
		{
			"name":"Mesh_0.005",
			"primitives":[
				{
					"attributes":{
						"POSITION":0,
						"NORMAL":1
					},
					"indices":2,
					"material":0
				}
			]
		}
	],
	"accessors":[
		{
			"bufferView":0,
			"componentType":5126,
			"count":421,
			"max":[
				2.925800085067749,
				0.8844000101089478,
				4.4527997970581055
			],
			"min":[
				-3.960599899291992,
				-0.9830999970436096,
				-3.7953999042510986
			],
			"type":"VEC3"
		},
		{
			"bufferView":1,
			"componentType":5126,
			"count":421,
			"type":"VEC3"
		},
		{
			"bufferView":2,
			"componentType":5123,
			"count":738,
			"type":"SCALAR"
		}
	],
	"bufferViews":[
		{
			"buffer":0,
			"byteLength":5052,
			"byteOffset":0,
			"target":34962
		},
		{
			"buffer":0,
			"byteLength":5052,
			"byteOffset":5052,
			"target":34962
		},
		{
			"buffer":0,
			"byteLength":1476,
			"byteOffset":10104,
			"target":34963
		}
	],
	"buffers":[
		{
			"byteLength":11580,
			"uri":"data:application/octet-stream;base64,"
		}
	]
}
